<?xml version="1.0" standalone="no"?><!DOCTYPE svg PUBLIC "-//W3C//DTD SVG 1.1//EN" "http://www.w3.org/Graphics/SVG/1.1/DTD/svg11.dtd"><svg class="icon" width="200px" height="200.00px" viewBox="0 0 1024 1024" version="1.1" xmlns="http://www.w3.org/2000/svg"><path fill="#333333" d="M633.038704 108.536972 269.922592 108.536972c-33.487695 0-62.133106 20.37505-74.236771 49.222051L74.04132 442.201308c-3.63069 9.279341-5.850242 19.164478-5.850242 29.452799l0 77.262688 0.403183 0.403183-0.403183 3.025916c0 44.582381 36.109406 80.69281 80.69281 80.69281l254.786871 0-38.530548 184.382381c-0.807389 4.034896-1.412163 8.271384-1.412163 12.709463 0 16.743336 6.859221 31.873941 17.752316 42.767036l42.968627 42.565445L690.128957 649.78204c14.524808-14.7264 23.602557-34.899858 23.602557-57.090253L713.731514 189.229782C713.731514 144.647401 677.621085 108.536972 633.038704 108.536972zM794.423301 108.536972l0 484.154815 161.384597 0L955.807898 108.536972 794.423301 108.536972z" /></svg>